<svg width="20" height="20" viewBox="0 0 20 20" fill="none" xmlns="http://www.w3.org/2000/svg">
<path d="M20 4.00007C20.0001 3.26167 19.7957 2.53767 19.4096 1.90827C19.0235 1.27887 18.4707 0.768631 17.8124 0.434083C17.1542 0.0995349 16.4162 -0.0462688 15.6801 0.0128348C14.9441 0.0719313 14.2388 0.333617 13.6424 0.768916C13.0459 1.20421 12.5816 1.79611 12.3009 2.47905C12.0202 3.162 11.934 3.90933 12.0518 4.63827C12.1697 5.36718 12.487 6.04924 12.9687 6.60892C13.4504 7.16852 14.0776 7.58392 14.7809 7.80905C14.7315 8.08636 14.5863 8.33758 14.3705 8.51869C14.1548 8.6998 13.8822 8.79928 13.6005 8.79977L6.40091 8.79992C5.99212 8.79956 5.58632 8.8691 5.20099 9.00555V7.81566C6.11258 7.52896 6.8914 6.92541 7.39647 6.11416C7.90154 5.30298 8.0995 4.33771 7.95444 3.39317C7.80946 2.44863 7.33105 1.58723 6.60591 0.964892C5.8807 0.342562 4.95667 0.000426692 4.00107 0.000426692C3.04547 0.000426692 2.12144 0.342562 1.39626 0.964892C0.671084 1.58723 0.192688 2.44863 0.0476666 3.39317C-0.0973548 4.33771 0.100591 5.30298 0.605659 6.11416C1.11073 6.92541 1.88956 7.52896 2.80115 7.81566V12.1839C1.89017 12.4701 1.11163 13.0728 0.606235 13.883C0.10084 14.6933 -0.0980659 15.6575 0.0454481 16.6016C0.188969 17.5456 0.665453 18.4072 1.38879 19.0306C2.11213 19.654 3.0346 19.9981 3.9895 20.0007C4.94437 20.0033 5.86875 19.6643 6.59546 19.0448C7.32217 18.4254 7.80334 17.5664 7.95203 16.6231C8.10071 15.6799 7.90702 14.7145 7.40607 13.9016C6.90513 13.0887 6.12985 12.4817 5.22048 12.1905C5.26982 11.9132 5.41509 11.6619 5.63083 11.4808C5.84664 11.2997 6.11919 11.2003 6.40091 11.1998L13.6005 11.1996C14.5171 11.1985 15.3987 10.8481 16.066 10.2199C16.7334 9.59176 17.1364 8.73286 17.1929 7.81808C18.006 7.56295 18.7166 7.05518 19.2214 6.3685C19.7262 5.6819 19.9989 4.85223 20 4.00007ZM4.00107 2.40017C4.3175 2.40017 4.62681 2.49401 4.8899 2.6698C5.153 2.8456 5.35807 3.09547 5.47916 3.38781C5.60025 3.68015 5.63197 4.00184 5.57025 4.31218C5.50846 4.62256 5.35615 4.90762 5.13237 5.13133C4.9086 5.3551 4.62354 5.50748 4.31323 5.5692C4.00284 5.63092 3.68116 5.59928 3.38882 5.47818C3.09648 5.35709 2.8466 5.15202 2.67081 4.88892C2.49501 4.62583 2.40118 4.31652 2.40118 4.00007C2.40166 3.5759 2.57038 3.16924 2.87031 2.8693C3.17025 2.56937 3.5769 2.40066 4.00107 2.40017ZM4.00107 17.5994C3.68464 17.5994 3.37532 17.5055 3.11221 17.3298C2.84911 17.154 2.64406 16.9041 2.52296 16.6117C2.40187 16.3194 2.37018 15.9977 2.43192 15.6873C2.49365 15.377 2.64603 15.092 2.86978 14.8682C3.09352 14.6444 3.3786 14.492 3.68894 14.4303C3.99929 14.3686 4.32098 14.4003 4.6133 14.5214C4.90569 14.6425 5.15556 14.8476 5.33133 15.1107C5.5071 15.3738 5.60097 15.6831 5.60097 15.9995C5.60047 16.4237 5.43173 16.8303 5.13181 17.1302C4.83188 17.4302 4.42522 17.5989 4.00107 17.5994ZM16.0003 5.59999C15.6838 5.59999 15.3745 5.50613 15.1114 5.33035C14.8483 5.15451 14.6433 4.90464 14.5222 4.61232C14.4011 4.32 14.3694 3.99829 14.4311 3.68794C14.4928 3.37759 14.6452 3.09251 14.869 2.86877C15.0927 2.64502 15.3778 2.49265 15.6881 2.43091C15.9985 2.36918 16.3202 2.40086 16.6125 2.52196C16.9049 2.64304 17.1548 2.84811 17.3305 3.11121C17.5063 3.37431 17.6002 3.68364 17.6002 4.00007C17.5997 4.42424 17.4309 4.8309 17.131 5.13083C16.8311 5.43075 16.4244 5.59949 16.0003 5.59999Z" fill="#495E57"/>
</svg>
