<svg width="29" height="30" viewBox="0 0 29 30" fill="none" xmlns="http://www.w3.org/2000/svg">
<path d="M28.3825 6.56218C28.3826 5.52374 28.0952 4.50555 27.5522 3.62039C27.0092 2.73524 26.2318 2.01767 25.306 1.54718C24.3803 1.07669 23.3424 0.871637 22.3073 0.954757C21.2722 1.03787 20.2803 1.40589 19.4415 2.01807C18.6027 2.63024 17.9497 3.46266 17.5549 4.42311C17.1601 5.38357 17.0389 6.43457 17.2046 7.45972C17.3704 8.48482 17.8167 9.44402 18.4941 10.2311C19.1715 11.0181 20.0536 11.6023 21.0426 11.9189C20.9732 12.3089 20.769 12.6622 20.4655 12.9169C20.1621 13.1716 19.7788 13.3115 19.3826 13.3122L9.2575 13.3124C8.6826 13.3119 8.1119 13.4097 7.57 13.6016V11.9282C8.852 11.525 9.9473 10.6762 10.6576 9.53532C11.3679 8.39452 11.6463 7.03702 11.4423 5.70867C11.2384 4.38033 10.5656 3.1689 9.5458 2.29368C8.5259 1.41847 7.2264 0.937307 5.8825 0.937307C4.53859 0.937307 3.23909 1.41847 2.21924 2.29368C1.19939 3.1689 0.526601 4.38033 0.322651 5.70867C0.118701 7.03702 0.397081 8.39452 1.10738 9.53532C1.81769 10.6762 2.91299 11.525 4.195 11.9282V18.0715C2.91384 18.474 1.81895 19.3216 1.10819 20.461C0.397431 21.6005 0.117701 22.9565 0.319531 24.2842C0.521371 25.6119 1.19147 26.8236 2.20873 27.7003C3.22599 28.577 4.5233 29.0609 5.86622 29.0646C7.2091 29.0682 8.5091 28.5914 9.5311 27.7202C10.5531 26.8491 11.2298 25.6411 11.4389 24.3145C11.648 22.988 11.3756 21.6304 10.6711 20.4871C9.9666 19.3439 8.8763 18.4903 7.5974 18.0807C7.6668 17.6907 7.8711 17.3374 8.1745 17.0827C8.478 16.828 8.8613 16.6881 9.2575 16.6874L19.3826 16.6872C20.6716 16.6856 21.9115 16.1929 22.85 15.3094C23.7886 14.426 24.3553 13.2181 24.4348 11.9316C25.5783 11.5728 26.5776 10.8587 27.2875 9.89302C27.9975 8.92742 28.381 7.76062 28.3825 6.56218ZM5.8825 4.31218C6.3275 4.31218 6.7625 4.44414 7.1325 4.69137C7.5025 4.9386 7.7909 5.29 7.9612 5.70114C8.1315 6.11227 8.1761 6.56467 8.0893 7.00112C8.0024 7.43762 7.7882 7.83852 7.4735 8.15312C7.1588 8.46782 6.7579 8.68212 6.3215 8.76892C5.88499 8.85572 5.43259 8.81122 5.02146 8.64092C4.61033 8.47062 4.25892 8.18222 4.01169 7.81222C3.76446 7.44222 3.6325 7.00722 3.6325 6.56218C3.63318 5.96565 3.87045 5.39375 4.29226 4.97194C4.71407 4.55013 5.28597 4.31286 5.8825 4.31218ZM5.8825 25.6875C5.43749 25.6875 5.00248 25.5555 4.63246 25.3083C4.26245 25.0611 3.97407 24.7097 3.80377 24.2985C3.63347 23.8874 3.58891 23.435 3.67573 22.9985C3.76255 22.5621 3.97684 22.1612 4.29151 21.8465C4.60617 21.5318 5.00709 21.3175 5.44354 21.2307C5.88 21.1439 6.3324 21.1885 6.7435 21.3588C7.1547 21.5291 7.5061 21.8175 7.7533 22.1875C8.0005 22.5575 8.1325 22.9925 8.1325 23.4375C8.1318 24.034 7.8945 24.6059 7.4727 25.0277C7.0509 25.4495 6.479 25.6868 5.8825 25.6875ZM22.7575 8.81222C22.3125 8.81222 21.8775 8.68022 21.5075 8.43302C21.1375 8.18572 20.8491 7.83432 20.6788 7.42322C20.5085 7.01212 20.4639 6.55968 20.5507 6.12322C20.6375 5.68677 20.8518 5.28585 21.1665 4.97119C21.4812 4.65652 21.8821 4.44223 22.3185 4.35541C22.755 4.26859 23.2074 4.31315 23.6185 4.48345C24.0297 4.65374 24.3811 4.94213 24.6283 5.31214C24.8755 5.68215 25.0075 6.11717 25.0075 6.56218C25.0068 7.15872 24.7695 7.73062 24.3477 8.15242C23.9259 8.57422 23.354 8.81152 22.7575 8.81222Z" fill="#495E57"/>
</svg>
