<svg width="24" height="24" viewBox="0 0 24 24" fill="none" xmlns="http://www.w3.org/2000/svg">
<g clip-path="url(#clip0_84_2)">
<path d="M12 12H11.2C11.2 12.2122 11.2843 12.4157 11.4343 12.5657L12 12ZM12 22.4C6.25624 22.4 1.6 17.7438 1.6 12H0C0 18.6274 5.37258 24 12 24V22.4ZM22.4 12C22.4 17.7438 17.7438 22.4 12 22.4V24C18.6274 24 24 18.6274 24 12H22.4ZM12 1.6C17.7438 1.6 22.4 6.25624 22.4 12H24C24 5.37258 18.6274 0 12 0V1.6ZM12 0C5.37258 0 0 5.37258 0 12H1.6C1.6 6.25624 6.25624 1.6 12 1.6V0ZM11.2 4.8V12H12.8V4.8H11.2ZM11.4343 12.5657L16.2342 17.3658L17.3658 16.2342L12.5657 11.4343L11.4343 12.5657Z" fill="#495e57"/>
</g>
<defs>
<clipPath id="clip0_84_2">
<rect width="24" height="24" fill="white"/>
</clipPath>
</defs>
</svg>
