<svg width="21" height="20" viewBox="0 0 21 20" fill="none" xmlns="http://www.w3.org/2000/svg">
<g clip-path="url(#clip0_27_692)">
<path d="M20.0085 14.2133H19.1559C18.8243 10.4231 15.9788 7.34446 12.3001 6.65848C12.3882 6.45354 12.4377 6.22815 12.4377 5.99119C12.4377 5.05907 11.6821 4.30371 10.75 4.30371C9.81783 4.30371 9.06277 5.05907 9.06277 5.99119C9.06277 6.22845 9.11231 6.45384 9.20038 6.65848C5.5212 7.34443 2.67503 10.4228 2.34346 14.2133H1.49144C1.08186 14.2133 0.75 14.5451 0.75 14.9547C0.75 15.3643 1.08186 15.6961 1.49144 15.6961H3.05049H18.4495C18.4519 15.6964 18.4542 15.6961 18.4554 15.6961H20.0086C20.4181 15.6961 20.75 15.3643 20.75 14.9547C20.75 14.5451 20.4178 14.2133 20.0085 14.2133ZM3.83104 14.2133C4.20235 10.7235 7.16358 7.99629 10.75 7.99629C14.3364 7.99629 17.2976 10.7235 17.6689 14.2132H3.83104V14.2133Z" fill="black"/>
<path d="M11.9466 9.72145C11.2343 10.266 11.0973 11.2846 11.6415 11.9976C12.1869 12.71 13.2035 12.8464 13.9167 12.3025C14.6282 11.7577 14.7646 10.7393 14.2222 10.0266C13.6777 9.31426 12.659 9.17782 11.9466 9.72145Z" fill="black"/>
<path d="M9.66603 10.7808C9.30005 11.0586 9.2292 11.5809 9.50914 11.946C9.78731 12.3116 10.3105 12.3816 10.675 12.1026C11.0403 11.8241 11.1106 11.3009 10.8306 10.9359C10.5522 10.5708 10.0308 10.5008 9.66603 10.7808Z" fill="black"/>
<path d="M9.6945 12.9383C9.49044 13.0955 9.45071 13.3882 9.60731 13.5931C9.76299 13.7975 10.0554 13.8369 10.2603 13.6806C10.4665 13.5246 10.5056 13.2313 10.349 13.0258C10.1921 12.8215 9.89914 12.7817 9.6945 12.9383Z" fill="black"/>
</g>
<defs>
<clipPath id="clip0_27_692">
<rect width="20" height="20" fill="white" transform="translate(0.75)"/>
</clipPath>
</defs>
</svg>
