<svg width="25" height="24" viewBox="0 0 25 24" fill="none" xmlns="http://www.w3.org/2000/svg">
<path d="M14.25 8H15.25C15.5152 8 15.7696 7.89464 15.9571 7.70711C16.1446 7.51957 16.25 7.26522 16.25 7C16.25 6.73478 16.1446 6.48043 15.9571 6.29289C15.7696 6.10536 15.5152 6 15.25 6H14.25C13.9848 6 13.7304 6.10536 13.5429 6.29289C13.3554 6.48043 13.25 6.73478 13.25 7C13.25 7.26522 13.3554 7.51957 13.5429 7.70711C13.7304 7.89464 13.9848 8 14.25 8ZM14.25 12H15.25C15.5152 12 15.7696 11.8946 15.9571 11.7071C16.1446 11.5196 16.25 11.2652 16.25 11C16.25 10.7348 16.1446 10.4804 15.9571 10.2929C15.7696 10.1054 15.5152 10 15.25 10H14.25C13.9848 10 13.7304 10.1054 13.5429 10.2929C13.3554 10.4804 13.25 10.7348 13.25 11C13.25 11.2652 13.3554 11.5196 13.5429 11.7071C13.7304 11.8946 13.9848 12 14.25 12ZM9.25 8H10.25C10.5152 8 10.7696 7.89464 10.9571 7.70711C11.1446 7.51957 11.25 7.26522 11.25 7C11.25 6.73478 11.1446 6.48043 10.9571 6.29289C10.7696 6.10536 10.5152 6 10.25 6H9.25C8.98478 6 8.73043 6.10536 8.54289 6.29289C8.35536 6.48043 8.25 6.73478 8.25 7C8.25 7.26522 8.35536 7.51957 8.54289 7.70711C8.73043 7.89464 8.98478 8 9.25 8ZM9.25 12H10.25C10.5152 12 10.7696 11.8946 10.9571 11.7071C11.1446 11.5196 11.25 11.2652 11.25 11C11.25 10.7348 11.1446 10.4804 10.9571 10.2929C10.7696 10.1054 10.5152 10 10.25 10H9.25C8.98478 10 8.73043 10.1054 8.54289 10.2929C8.35536 10.4804 8.25 10.7348 8.25 11C8.25 11.2652 8.35536 11.5196 8.54289 11.7071C8.73043 11.8946 8.98478 12 9.25 12ZM21.25 20H20.25V3C20.25 2.73478 20.1446 2.48043 19.9571 2.29289C19.7696 2.10536 19.5152 2 19.25 2H5.25C4.98478 2 4.73043 2.10536 4.54289 2.29289C4.35536 2.48043 4.25 2.73478 4.25 3V20H3.25C2.98478 20 2.73043 20.1054 2.54289 20.2929C2.35536 20.4804 2.25 20.7348 2.25 21C2.25 21.2652 2.35536 21.5196 2.54289 21.7071C2.73043 21.8946 2.98478 22 3.25 22H21.25C21.5152 22 21.7696 21.8946 21.9571 21.7071C22.1446 21.5196 22.25 21.2652 22.25 21C22.25 20.7348 22.1446 20.4804 21.9571 20.2929C21.7696 20.1054 21.5152 20 21.25 20ZM13.25 20H11.25V16H13.25V20ZM18.25 20H15.25V15C15.25 14.7348 15.1446 14.4804 14.9571 14.2929C14.7696 14.1054 14.5152 14 14.25 14H10.25C9.98478 14 9.73043 14.1054 9.54289 14.2929C9.35536 14.4804 9.25 14.7348 9.25 15V20H6.25V4H18.25V20Z" fill="black"/>
</svg>
