<svg width="21" height="20" viewBox="0 0 21 20" fill="none" xmlns="http://www.w3.org/2000/svg">
<g clip-path="url(#clip0_27_689)">
<path d="M10.4093 16.2105C6.73677 16.2105 3.74886 13.2227 3.74886 9.55008C3.74886 5.87747 6.73677 2.88969 10.4093 2.88969C14.0818 2.88969 17.0697 5.8775 17.0697 9.55012C17.0698 13.2227 14.0819 16.2105 10.4093 16.2105ZM10.4093 3.84188C7.2617 3.84188 4.70105 6.40263 4.70105 9.55012C4.70105 12.6976 7.2618 15.2583 10.4093 15.2583C13.5568 15.2583 16.1175 12.6976 16.1175 9.55012C16.1176 6.4026 13.5569 3.84188 10.4093 3.84188ZM10.4093 4.87767C7.83284 4.87767 5.73686 6.97374 5.73686 9.55018C5.73686 12.1266 7.83294 14.2226 10.4093 14.2226C12.9856 14.2226 15.0817 12.1265 15.0817 9.55018C15.0817 6.97384 12.9858 4.87767 10.4093 4.87767ZM3.93101 6.95803C3.93111 6.9529 3.92987 6.94803 3.92977 6.9429C3.92967 6.93767 3.93082 6.9327 3.93062 6.92747L3.76513 3.28675C3.75314 3.02414 3.53451 2.81845 3.26781 2.83273C3.0052 2.84463 2.8019 3.06724 2.81379 3.32995L2.9567 6.47296H2.5665V3.30835C2.5665 3.04544 2.3534 2.83224 2.09039 2.83224C1.82739 2.83224 1.61428 3.04544 1.61428 3.30835V6.47296H1.22409L1.36699 3.32995C1.37889 3.06734 1.17559 2.84463 0.912975 2.83273C0.648661 2.8195 0.42755 3.02394 0.415655 3.28675L0.25023 6.92747C0.249936 6.9327 0.251178 6.93767 0.251079 6.9429C0.250981 6.94803 0.24974 6.9529 0.249838 6.95803C0.263073 7.66551 0.684053 8.27757 1.28307 8.57417L1.2068 16.3192C1.20471 16.5376 1.28984 16.7451 1.44683 16.9037C1.61297 17.0716 1.84762 17.1678 2.09052 17.1678C2.33343 17.1678 2.56804 17.0716 2.73422 16.9037C2.89114 16.7451 2.97637 16.5376 2.97418 16.3193L2.89791 8.57417C3.49683 8.27757 3.91778 7.66551 3.93101 6.95803ZM2.82258 7.42518C2.66157 7.65894 2.39219 7.81309 2.09052 7.81309C1.78886 7.81309 1.51948 7.65894 1.35847 7.42518H2.82258ZM20.2498 7.20597C20.2498 6.02352 19.9834 4.52839 19.8245 3.74237C19.7198 3.22515 19.2605 2.84969 18.7322 2.84969H18.7206C18.1061 2.84969 17.6062 3.3496 17.6062 3.96414V10.8969V11.2766V16.2149C17.6062 16.7404 18.0337 17.1679 18.5592 17.1679H18.8584C19.3839 17.1679 19.8114 16.7404 19.8114 16.2149V10.8969C19.8114 10.8928 19.8103 10.889 19.8102 10.8849C19.9844 10.2853 20.2498 9.066 20.2498 7.20597ZM18.7207 3.80188H18.7323C18.8093 3.80188 18.8762 3.85626 18.8912 3.931C19.0431 4.68208 19.2977 6.10639 19.2977 7.20597C19.2977 8.76881 19.0985 9.83763 18.9489 10.4208H18.5586V3.96414C18.5584 3.87463 18.6312 3.80188 18.7207 3.80188Z" fill="black"/>
</g>
<defs>
<clipPath id="clip0_27_689">
<rect width="20" height="20" fill="white" transform="translate(0.25)"/>
</clipPath>
</defs>
</svg>
