<svg width="25" height="22" viewBox="0 0 25 22" fill="none" xmlns="http://www.w3.org/2000/svg">
<path d="M24.5169 8.28662C24.4476 8.06801 24.317 7.87388 24.1406 7.72726C23.9642 7.58064 23.7495 7.48769 23.5219 7.45944L16.6886 6.52435L13.5837 0.758015C13.4809 0.5677 13.3286 0.408717 13.1429 0.29791C12.9572 0.187104 12.745 0.128601 12.5287 0.128601C12.3124 0.128601 12.1002 0.187104 11.9145 0.29791C11.7287 0.408717 11.5765 0.5677 11.4737 0.758015L8.41673 6.52435L1.58344 7.45944C1.35799 7.48983 1.14583 7.58375 0.971762 7.73023C0.797692 7.8767 0.668892 8.06968 0.600408 8.28662C0.54123 8.49803 0.541238 8.72162 0.60043 8.93302C0.659622 9.14442 0.775726 9.33551 0.936078 9.48545L5.83926 13.9571L4.64044 20.2389C4.58187 20.4666 4.59153 20.7064 4.66823 20.9287C4.74492 21.1509 4.88526 21.3457 5.07179 21.4887C5.25831 21.6318 5.48279 21.7169 5.7173 21.7334C5.95181 21.7499 6.18599 21.6971 6.39072 21.5816L12.5287 18.5605L18.6667 21.5816C18.8311 21.6612 19.0115 21.7022 19.1941 21.7015C19.3715 21.7044 19.5473 21.6679 19.7088 21.5946C19.8704 21.5214 20.0137 21.4132 20.1283 21.2779C20.243 21.1425 20.3262 20.9835 20.372 20.8121C20.4178 20.6407 20.4249 20.4613 20.393 20.2868L19.1941 14.005L24.0973 9.5334C24.2812 9.38911 24.4189 9.19422 24.4934 8.9727C24.568 8.75119 24.5761 8.51272 24.5169 8.28662Z" fill="#F4CE14"/>
</svg>
